<?xml version="1.0" encoding="UTF-8"?>
<svg width="71px" height="71px" viewBox="0 0 71 71" version="1.1" xmlns="http://www.w3.org/2000/svg" xmlns:xlink="http://www.w3.org/1999/xlink">
    <!-- Generator: Sketch 55.1 (78136) - https://sketchapp.com -->
    <title>Slice Copy</title>
    <desc>Created with Sketch.</desc>
    <g id="Page-1" stroke="none" stroke-width="1" fill="none" fill-rule="evenodd">
        <path d="M52.1863398,22.4870345 L51.150068,21.8576692 L50.7356977,21.6057843 L50.8505315,21.4149624 C51.7442987,19.9334907 51.2697443,17.9989036 49.7928148,17.1030816 L48.7212627,16.4528994 C47.2443332,15.5563834 45.3156778,16.0323973 44.4226024,17.5138691 L44.3077686,17.704691 L42.8564346,16.8234408 L36.2064473,27.846701 L37.6577813,28.7279512 L35,33.1328143 L32.3429105,28.7279512 L33.7942445,27.846701 L27.1442572,16.8234408 L25.6929232,17.704691 L25.5780893,17.5138691 C24.6843222,16.0323973 22.7556668,15.5570773 21.2794291,16.4528994 L20.207877,17.1030816 C18.7309475,17.9995975 18.2563931,19.9334907 19.1501603,21.4149624 L19.2649941,21.6057843 L18.8506237,21.8576692 L17.8143519,22.4870345 L5,30.2642409 L5.45241774,31.2509636 C5.70560564,31.8019184 11.7378421,44.7909911 19.584592,48.1466807 L20.6706712,48.6108984 L23.6992414,41.967521 L22.9756497,41.3735445 C22.9472871,41.3506458 19.9477713,38.8255518 20.8498397,36.3899706 C21.5208569,34.5761217 23.104319,33.4665792 24.106694,32.9183999 L24.4636475,33.5102947 L25.9149814,32.6297385 L30.6093343,40.4118021 L24.4726405,50.5850376 C23.5788733,52.0665093 24.0534277,54.0010964 25.5303572,54.8969184 L26.6012175,55.5471006 C28.078147,56.4436166 30.0068024,55.9676027 30.8998778,54.4861309 L35,47.690096 L39.0994304,54.4861309 C39.9931976,55.9669088 41.921853,56.4429227 43.3980907,55.5471006 L44.468951,54.8969184 C45.9458805,54.0004025 46.4204349,52.0658154 45.5266677,50.5850376 L39.3899739,40.4118021 L44.0843268,32.6297385 L45.5356608,33.5102947 L45.8926142,32.9183999 C46.8949893,33.4665792 48.4784514,34.5761217 49.1494685,36.3899706 C50.0508451,38.8255518 47.0520211,41.3499519 47.0236585,41.3735445 L46.3007586,41.967521 L49.3293288,48.6108984 L50.415408,48.1466807 C58.2628496,44.791685 64.2950861,31.8026123 64.5475823,31.2509636 L65,30.2642409 L52.1863398,22.4870345 Z M47.1379294,18.356587 C47.3805521,18.0076333 47.9031881,17.8954179 48.3036818,18.1068172 L49.5907456,18.7851776 C49.9912393,18.9965769 50.1200288,19.4519544 49.877406,19.8009081 L49.7394767,20 L47,18.5556789 L47.1379294,18.356587 Z M21.4092544,18.7851776 L22.6963182,18.1068172 C23.0968119,17.8954179 23.6202788,18.0076333 23.8620706,18.356587 L24,18.5556789 L21.2605233,20 L21.122594,19.8009081 C20.8799712,19.4519544 21.0087607,18.995853 21.4092544,18.7851776 Z M21,43.1776301 L19.6933706,46 C14.1410868,42.8889867 9.47984866,34.498614 8,31.6171074 L10.7059275,30 C11.8108241,32.3570203 14.4568734,37.1034452 18.5528322,38.9627316 C18.9391896,40.8220179 20.1880792,42.3511242 21,43.1776301 Z M18.7285043,35.7852361 C18.7015482,35.8575059 18.6849599,35.928412 18.6614598,36 C15.7571192,34.1939383 13.788637,30.4379571 13,28.7116648 L19.2185513,25 L23,31.1640635 C21.6528891,31.9078964 19.6380979,33.3662452 18.7285043,35.7852361 Z M24.9962163,30 L21,23.1429364 L26.0037837,20 L30,26.8570636 L24.9962163,30 Z M29.3358403,52.683832 C29.1377695,52.993232 28.7111033,53.0927278 28.3841509,52.9052905 L27.3341044,52.3038222 C27.007152,52.1163849 26.9020117,51.7126244 27.1000825,51.4032245 L32.4724131,43 L34,45.3891835 L29.3358403,52.683832 Z M42.6715384,52.2660261 L41.6397115,52.9001486 C41.3184321,53.0977621 40.8985025,52.9928645 40.7045351,52.666667 L28,31.3501329 L30.1976313,30 L42.9014998,51.3165341 C43.0961338,51.6427316 42.9934844,52.0690894 42.6715384,52.2660261 Z M38.6706231,38 L37,35.4419244 L40.5541543,30 L43,31.371134 L38.6706231,38 Z M45.0037837,30 L40,26.8570636 L43.9962163,20 L49,23.1429364 L45.0037837,30 Z M47,31.1640635 L50.7814487,25 L57,28.7116648 C56.2120542,30.4386389 54.2428808,34.1939383 51.3385402,36 C51.3150401,35.928412 51.2984518,35.8575059 51.2714957,35.7852361 C50.3619021,33.366927 48.3471109,31.9085782 47,31.1640635 Z M50.3066294,46 L49,43.1776301 C49.811208,42.3511242 51.0608104,40.8213139 51.4471678,38.9627316 C55.5438394,37.1034452 58.1898887,32.3570203 59.2940725,30 L62,31.6171074 C60.5201513,34.498614 55.8589132,42.8882827 50.3066294,46 Z" id="Shape" fill="#FF3864" fill-rule="nonzero"></path>
    </g>
</svg>