<?xml version="1.0" encoding="UTF-8"?>
<svg width="71px" height="71px" viewBox="0 0 71 71" version="1.1" xmlns="http://www.w3.org/2000/svg" xmlns:xlink="http://www.w3.org/1999/xlink">
    <!-- Generator: Sketch 55.1 (78136) - https://sketchapp.com -->
    <title>Slice Copy 2</title>
    <desc>Created with Sketch.</desc>
    <g id="Page-1" stroke="none" stroke-width="1" fill="none" fill-rule="evenodd">
        <g id="noun_Crown_1715866" transform="translate(10.000000, 20.000000)" fill="#FF3864" fill-rule="nonzero">
            <g id="Group">
                <path d="M49.6880435,18.9881379 C49.9228261,19.4096552 49.9228261,19.9255172 49.6880435,20.3470345 L46.6032609,25.8797241 L46.6032609,30.4921379 C46.6032609,31.254069 45.9951087,31.8714483 45.2445652,31.8714483 L4.75543478,31.8714483 C4.0048913,31.8714483 3.39673913,31.254069 3.39673913,30.4921379 L3.39673913,25.8891034 L0.320652174,20.5274483 C0.0923913043,20.1296552 0.0744565217,19.6424828 0.273369565,19.2286897 L3.39728261,12.7282759 L3.39728261,3.71475862 C3.39728261,3.16082759 3.72336957,2.66096552 4.22554348,2.44468966 C4.72717391,2.22896552 5.30815217,2.3382069 5.70054348,2.72331034 L15.0445652,11.904 L23.9402174,0.644965517 C24.1978261,0.318344828 24.5880435,0.128551724 25,0.128551724 C25.0021739,0.128551724 25.0038043,0.128551724 25.0059783,0.128551724 C25.4201087,0.130206897 25.8103261,0.323862069 26.0668478,0.653793103 L34.8032609,11.9045517 L44.3076087,2.71558621 C44.7005435,2.33544828 45.2788043,2.22841379 45.7793478,2.44689655 C46.2793478,2.66427586 46.6032609,3.16303448 46.6032609,3.71475862 L46.6032609,13.4554483 L49.6880435,18.9881379 Z M3.03369565,19.776 L4.73804348,22.7464828 L6.47717391,19.6270345 L4.7701087,16.1616552 L3.03369565,19.776 Z M6.11413043,29.1128276 L6.11413043,29.1133793 L43.886413,29.1133793 L43.886413,25.8808276 L40.8016304,20.3475862 C40.5782609,19.9475862 40.5663043,19.462069 40.7684783,19.0510345 L43.8858696,12.7211034 L43.8858696,6.93351724 L35.5967391,14.9473103 C35.3206522,15.2143448 34.9472826,15.3517241 34.563587,15.3241379 C34.1820652,15.2965517 33.8304348,15.1067586 33.5934783,14.8022069 L24.9907609,3.72413793 L16.2315217,14.8115862 C15.9923913,15.1144828 15.638587,15.3009655 15.2570652,15.3252414 C14.8755435,15.3495172 14.5016304,15.2093793 14.2266304,14.9395862 L6.11413043,6.96937931 L6.11413043,12.7216552 L9.23152174,19.0504828 C9.43423913,19.4615172 9.42173913,19.9475862 9.19891304,20.3470345 L6.11413043,25.8802759 L6.11413043,29.1128276 Z M45.2440217,22.7161379 L46.9434783,19.6673103 L45.1163043,16.390069 L43.5217391,19.6275862 L45.2440217,22.7161379 Z M26.1038043,13.0151724 L30.2353261,18.8645517 C30.575,19.3451034 30.575,19.9917241 30.2353261,20.4722759 L26.1038043,26.3216552 C25.8494565,26.6824828 25.4380435,26.8971034 25,26.8971034 C24.5619565,26.8971034 24.151087,26.6824828 23.8956522,26.3216552 L19.7641304,20.4722759 C19.4244565,19.9911724 19.4244565,19.3451034 19.7641304,18.8645517 L23.8956522,13.0151724 C24.151087,12.6537931 24.5625,12.4397241 25,12.4397241 C25.4375,12.4397241 25.848913,12.6537931 26.1038043,13.0151724 Z M25,23.1497931 L27.4592391,19.6678621 L25,16.185931 L22.5407609,19.6673103 L25,23.1497931 Z" id="Combined-Shape"></path>
            </g>
        </g>
    </g>
</svg>