<?xml version="1.0" encoding="UTF-8"?>
<svg width="71px" height="71px" viewBox="0 0 71 71" version="1.1" xmlns="http://www.w3.org/2000/svg" xmlns:xlink="http://www.w3.org/1999/xlink">
    <!-- Generator: Sketch 55.1 (78136) - https://sketchapp.com -->
    <title>Slice</title>
    <desc>Created with Sketch.</desc>
    <g id="Page-1" stroke="none" stroke-width="1" fill="none" fill-rule="evenodd">
        <g id="noun_wand_223034" transform="translate(14.000000, 10.000000)" fill="#FF3864">
            <g id="Group" transform="translate(0.000000, 0.637800)">
                <path d="M23.0756202,22.4989976 L10.90625,47.7617 C10.7599589,48.097474 10.441687,48.3264074 10.0766933,48.358401 C9.71169959,48.3903946 9.35842214,48.220326 9.15589687,47.9151275 C8.95337161,47.609929 8.93402419,47.218465 9.105469,46.8948 L21.3017879,21.5724404 L15.123047,22.3432 C14.6831442,22.3972026 14.2601523,22.1553625 14.0837067,21.7489705 C13.9072612,21.3425786 14.0194529,20.8685797 14.359375,20.5843 L19.669922,16.1604 L16.167969,10.9107 C15.9235276,10.5425394 15.9498937,10.0576426 16.2328145,9.71813173 C16.5157352,9.37862091 16.9880878,9.26504497 17.394531,9.4388 L23.708984,12.1426 L28.232422,6.7173 C28.4210517,6.49132787 28.6997155,6.35991978 28.994141,6.35808328 C29.2821559,6.35643656 29.556906,6.47897039 29.7480472,6.69432925 C29.9391883,6.9096881 30.0281619,7.19696184 29.992188,7.4826 L29.085938,14.7314 L35.394531,17.4353 C35.808044,17.6138996 36.0510698,18.0467863 35.9881271,18.4926356 C35.9251844,18.9384849 35.5718092,19.287249 35.125,19.3445 L28,20.2347 L28,27.3488 C27.9989897,27.8011994 27.6941449,28.1965312 27.2567219,28.3127048 C26.819299,28.4288785 26.3583435,28.236933 26.132812,27.8447 L23.0756202,22.4989976 Z M6.9902344,0.362653298 C7.4019879,0.358735952 7.77408575,0.607436231 7.9277344,0.9893 L9.787109,5.6358 L13.447266,7.4631 C13.786115,7.63242295 14.0001642,7.97858454 14.0001642,8.35725 C14.0001642,8.73591546 13.786115,9.08207705 13.447266,9.2514 L9.787109,11.0806 L7.9277344,15.727 C7.77531026,16.1054293 7.40812785,16.3533145 7,16.3533145 C6.59187215,16.3533145 6.22468974,16.1054293 6.0722656,15.727 L4.2128906,11.0806 L0.5527344,9.2514 C0.213885437,9.08207705 -0.000163788538,8.73591546 -0.000163788538,8.35725 C-0.000163788538,7.97858454 0.213885437,7.63242295 0.5527344,7.4631 L4.2128906,5.6358 L6.0722656,0.9893 C6.22325644,0.614038648 6.58560163,0.366703993 6.9902344,0.362653298 Z M7,4.0525 L5.9277344,6.731 C5.83665403,6.95759284 5.66574607,7.14302491 5.4472656,7.2523 L3.2363281,8.3572 L5.4472656,9.4622 C5.6660723,9.57191424 5.83702331,9.75803344 5.9277344,9.9853 L7,12.6659 L8.072266,9.9853 C8.1629769,9.75803358 8.3339276,9.57191439 8.552734,9.4622 L10.763672,8.3572 L8.552734,7.2523 C8.33425383,7.14302475 8.16334617,6.95759271 8.072266,6.731 L7,4.0525 Z M33.933594,33.3481 C34.3456959,33.3209393 34.7321155,33.5497743 34.90625,33.9241 L36.412109,37.1473 L39.394531,38.426 C39.7618387,38.5837132 39.9999003,38.9449136 39.9999003,39.3445 C39.9999003,39.7440864 39.7618387,40.1052868 39.394531,40.263 L36.412109,41.5398 L34.90625,44.765 C34.741921,45.1169267 34.3885432,45.3418667 34,45.3418667 C33.6114568,45.3418667 33.258079,45.1169267 33.09375,44.765 L31.587891,41.5398 L28.605469,40.263 C28.2381613,40.1052868 28.0000997,39.7440864 28.0000997,39.3445 C28.0000997,38.9449136 28.2381613,38.5837132 28.605469,38.426 L31.587891,37.1473 L33.09375,33.9241 C33.2475915,33.5933174 33.5694754,33.3725561 33.933594,33.3481 Z M34,36.7099 L33.240234,38.3381 C33.1359005,38.560955 32.9530069,38.7375209 32.726562,38.834 L31.537109,39.3435 L32.726562,39.8531 C32.9529894,39.9495546 33.1358806,40.1260826 33.240234,40.3489 L34,41.9771 L34.75977,40.3489 C34.8641234,40.1260826 35.0470146,39.9495546 35.273442,39.8531 L36.462895,39.3435 L35.273442,38.834 C35.0469971,38.7375209 34.8641035,38.560955 34.75977,38.3381 L34.000004,36.7099 Z M4,18.3528 C5.6450096,18.3528 7,19.7072 7,21.3514 C7,22.9957 5.6450096,24.3501 4,24.3501 C2.3549904,24.3501 1,22.9957 1,21.3514 C1,19.7072 2.3549904,18.3528 4,18.3528 Z M4,20.3519 C3.4358706,20.3519 3,20.7876 3,21.3514 C3,21.9154 3.4358706,22.351 4,22.351 C4.5641294,22.351 5,21.9154 5,21.3514 C5,20.7876 4.5641294,20.3519 4,20.3519 Z M41,25.3497 C42.64501,25.3497 44,26.7041 44,28.3483 C44,29.9926 42.64501,31.347 41,31.347 C39.35499,31.347 38,29.9926 38,28.3483 C38,26.7041 39.35499,25.3497 41,25.3497 Z M41,27.3488 C40.435871,27.3488 40,27.7845 40,28.3483 C40,28.9123 40.435871,29.3479 41,29.3479 C41.564129,29.3479 42,28.9123 42,28.3483 C42,27.7845 41.564129,27.3488 41,27.3488 Z M23.5,40.343 C24.868867,40.343 26,41.4737 26,42.8419 C26,44.2102 24.868867,45.3408 23.5,45.3408 C22.131133,45.3408 21,44.2102 21,42.8419 C21,41.4737 22.131133,40.343 23.5,40.343 Z M23.5,42.3422 C23.212013,42.3422 23,42.5541 23,42.8419 C23,43.1298 23.212013,43.3417 23.5,43.3417 C23.787987,43.3417 24,43.1298 24,42.8419 C24,42.5541 23.787987,42.3422 23.5,42.3422 Z M20.5,2.3598 C21.868867,2.3598 23,3.4905 23,4.8587 C23,6.227 21.868867,7.3576 20.5,7.3576 C19.131133,7.3576 18,6.227 18,4.8587 C18,3.4905 19.131133,2.3598 20.5,2.3598 Z M20.5,4.3589 C20.212013,4.3589 20,4.5708 20,4.8587 C20,5.1466 20.212013,5.3585 20.5,5.3585 C20.787987,5.3585 21,5.1466 21,4.8587 C21,4.5708 20.787987,4.3589 20.5,4.3589 Z M41.5,10.8561 C42.868867,10.8561 44,11.9868 44,13.355 C44,14.7233 42.868867,15.8539 41.5,15.8539 C40.131133,15.8539 39,14.7233 39,13.355 C39,11.9868 40.131133,10.8561 41.5,10.8561 Z M41.5,12.8552 C41.212013,12.8552 41,13.0671 41,13.355 C41,13.6428 41.212013,13.8547 41.5,13.8547 C41.787987,13.8547 42,13.6428 42,13.355 C42,13.0671 41.787987,12.8552 41.5,12.8552 Z M27.585938,10.616 L24.767578,13.9954 C24.4845397,14.3350095 24.0119694,14.4485052 23.605469,14.2745 L19.699219,12.6014 L21.832031,15.7992 C22.1164015,16.2244063 22.03381,16.7955812 21.640625,17.1229 L18.263672,19.9361 L22.876953,19.3601 C23.2774966,19.3101113 23.6688376,19.5057052 23.869141,19.856 L26,23.5829 L26,19.3523 C26.0001267,18.8478991 26.3761696,18.4226092 26.876953,18.3605 L31.212891,17.8179 L27.605469,16.2736 C27.1962365,16.097891 26.9525669,15.6728553 27.007812,15.2311 L27.585938,10.616 Z" id="Combined-Shape"></path>
            </g>
        </g>
    </g>
</svg>